<mxfile host="app.diagrams.net" modified="2022-08-21T05:31:24.112Z" agent="5.0 (Windows NT 10.0; Win64; x64) AppleWebKit/537.36 (KHTML, like Gecko) Chrome/104.0.0.0 Safari/537.36" etag="XoIp-mCHexqc4oKnCkBR" version="20.2.5" type="github">
  <diagram id="C9q1ILGot7QaDPbdZwU_" name="第 1 页">
    <mxGraphModel dx="1081" dy="741" grid="1" gridSize="10" guides="0" tooltips="1" connect="1" arrows="1" fold="1" page="1" pageScale="1" pageWidth="827" pageHeight="1169" background="none" math="0" shadow="0">
      <root>
        <mxCell id="0" />
        <mxCell id="1" parent="0" />
        <mxCell id="up2kM4MGdjOO5E21gpjV-24" value="struct task_struct" style="swimlane;fontStyle=1;childLayout=stackLayout;horizontal=1;startSize=20;fillColor=#d5e8d4;horizontalStack=0;resizeParent=1;resizeParentMax=0;resizeLast=0;collapsible=1;marginBottom=0;direction=east;labelBackgroundColor=none;labelBorderColor=none;strokeColor=#82b366;rounded=1;swimlaneLine=1;glass=0;shadow=0;sketch=0;arcSize=10;" parent="1" vertex="1">
          <mxGeometry x="80" y="40" width="165.68" height="120" as="geometry">
            <mxRectangle x="160" y="1130" width="140" height="30" as="alternateBounds" />
          </mxGeometry>
        </mxCell>
        <mxCell id="up2kM4MGdjOO5E21gpjV-25" value="+ fd: int" style="text;strokeColor=none;fillColor=none;align=left;verticalAlign=middle;spacingLeft=4;spacingRight=4;overflow=hidden;rotatable=0;points=[[0,0.5],[1,0.5]];portConstraint=eastwest;rounded=1;labelPosition=center;verticalLabelPosition=middle;fontStyle=0" parent="up2kM4MGdjOO5E21gpjV-24" vertex="1">
          <mxGeometry y="20" width="165.68" height="20" as="geometry" />
        </mxCell>
        <mxCell id="up2kM4MGdjOO5E21gpjV-26" value="Item 2" style="text;strokeColor=none;fillColor=none;align=left;verticalAlign=middle;spacingLeft=4;spacingRight=4;overflow=hidden;rotatable=0;points=[[0,0.5],[1,0.5]];portConstraint=eastwest;rounded=1;" parent="up2kM4MGdjOO5E21gpjV-24" vertex="1">
          <mxGeometry y="40" width="165.68" height="20" as="geometry" />
        </mxCell>
        <mxCell id="up2kM4MGdjOO5E21gpjV-28" value="Item 2" style="text;strokeColor=none;fillColor=none;align=left;verticalAlign=middle;spacingLeft=4;spacingRight=4;overflow=hidden;rotatable=0;points=[[0,0.5],[1,0.5]];portConstraint=eastwest;rounded=1;" parent="up2kM4MGdjOO5E21gpjV-24" vertex="1">
          <mxGeometry y="60" width="165.68" height="20" as="geometry" />
        </mxCell>
        <mxCell id="up2kM4MGdjOO5E21gpjV-29" value="Item 2" style="text;strokeColor=none;fillColor=none;align=left;verticalAlign=middle;spacingLeft=4;spacingRight=4;overflow=hidden;rotatable=0;points=[[0,0.5],[1,0.5]];portConstraint=eastwest;rounded=1;" parent="up2kM4MGdjOO5E21gpjV-24" vertex="1">
          <mxGeometry y="80" width="165.68" height="20" as="geometry" />
        </mxCell>
        <mxCell id="up2kM4MGdjOO5E21gpjV-30" value="Item 2" style="text;strokeColor=none;fillColor=none;align=left;verticalAlign=middle;spacingLeft=4;spacingRight=4;overflow=hidden;rotatable=0;points=[[0,0.5],[1,0.5]];portConstraint=eastwest;rounded=1;aspect=fixed;" parent="up2kM4MGdjOO5E21gpjV-24" vertex="1">
          <mxGeometry y="100" width="165.68" height="20" as="geometry" />
        </mxCell>
        <mxCell id="up2kM4MGdjOO5E21gpjV-57" value="file" style="html=1;rounded=1;shadow=0;glass=0;labelBackgroundColor=none;labelBorderColor=none;sketch=0;" parent="1" vertex="1">
          <mxGeometry x="340" y="80" width="110" height="20" as="geometry" />
        </mxCell>
        <mxCell id="up2kM4MGdjOO5E21gpjV-62" value="1" style="endArrow=open;html=1;endSize=12;startArrow=diamondThin;startSize=14;startFill=1;edgeStyle=orthogonalEdgeStyle;align=left;verticalAlign=bottom;rounded=1;curved=1;exitX=1;exitY=0.25;exitDx=0;exitDy=0;entryX=0;entryY=0.5;entryDx=0;entryDy=0;" parent="1" source="up2kM4MGdjOO5E21gpjV-24" target="up2kM4MGdjOO5E21gpjV-57" edge="1">
          <mxGeometry x="-1" y="3" relative="1" as="geometry">
            <mxPoint x="270" y="100" as="sourcePoint" />
            <mxPoint x="320" y="70" as="targetPoint" />
          </mxGeometry>
        </mxCell>
      </root>
    </mxGraphModel>
  </diagram>
</mxfile>
